<svg xmlns="http://www.w3.org/2000/svg" viewBox="0 0 32 32">
  <path d="M16 .396c-.612 0-1.224.146-1.81.434l-13.91 7.19a3.977 3.977 0 0 0-2.19 3.542v14.856a3.98 3.98 0 0 0 2.19 3.543l13.91 7.189a3.984 3.984 0 0 0 3.621 0l13.91-7.189a3.978 3.978 0 0 0 2.189-3.543v-14.856a3.975 3.975 0 0 0-2.19-3.542l-13.91-7.19a3.98 3.98 0 0 0-1.81-.434zm.004 2.087c.385 0 .768.093 1.119.278l13.91 7.189c.728.377 1.182 1.111 1.182 1.927v14.856c0 .816-.454 1.55-1.182 1.928l-13.91 7.189a2.204 2.204 0 0 1-2.238 0l-13.91-7.189a2.203 2.203 0 0 1-1.182-1.928v-14.856c0-.816.454-1.55 1.182-1.927l13.91-7.189a2.215 2.215 0 0 1 1.119-.278zm-.004 6.124c-3.682 0-6.668 2.986-6.668 6.668s2.986 6.668 6.668 6.668a6.639 6.639 0 0 0 4.478-1.778l-1.819-1.819a3.888 3.888 0 0 1-2.659 1.047 3.889 3.889 0 0 1-3.885-3.885 3.889 3.889 0 0 1 3.885-3.885c1.011 0 1.942.388 2.659 1.048l1.819-1.82a6.64 6.64 0 0 0-4.478-1.778zm8.588.221a.59.59 0 0 0-.36.106l-3.345 1.928a.585.585 0 0 0-.271.505v3.855c0 .199.104.383.271.484l3.345 1.928a.588.588 0 0 0 .541 0l3.345-1.928a.585.585 0 0 0 .271-.484v-3.855a.585.585 0 0 0-.271-.505l-3.345-1.928a.587.587 0 0 0-.181-.106.58.58 0 0 0-.18-.022zm.136 1.325 2.75 1.583v3.167l-2.75 1.583-2.75-1.583v-3.167z"/>
</svg>
