<svg xmlns="http://www.w3.org/2000/svg" viewBox="0 0 32 32">
  <path d="M16 0c-8.84 0-16 7.16-16 16s7.16 16 16 16 16-7.16 16-16-7.16-16-16-16zM10.6 21.2l-2.8-4.6-2.8 4.6h-1.4l3.8-6.1-3.4-5.5h1.4l2.6 4.2 2.6-4.2h1.4l-3.4 5.5 3.8 6.1h-1.4zM18 16.6v5.6h-0.3c-0.9-2.5-2.2-3.2-4.1-3.2v0.5c2.1 0 2.8 1.6 3.6 3.4h-0.3v-5.6h-3.6v-0.5h6.3v0.5h-1.6zM26 21.2v-2.1c0-0.9-0.2-1.6-1-1.6-0.8 0-1 0.6-1 1.6v2.1h-1.2v-2.1c0-0.9-0.2-1.6-1-1.6-0.8 0-1 0.6-1 1.6v2.1h-1.2v-6h1.2v2.1c0.6-0.8 1.4-1 2.1-1 0.9 0 1.5 0.4 1.8 1.1 0.5-0.7 1.3-1.1 2.1-1.1 1.4 0 2.2 0.9 2.2 2.1v2.1h-1.2z" fill="#000000"/>
</svg>
