<svg xmlns="http://www.w3.org/2000/svg" viewBox="0 0 32 32">
  <path d="M16 0c-8.84 0-16 7.16-16 16s7.16 16 16 16 16-7.16 16-16-7.16-16-16-16zM11.56 27.48c-2.22 0-3.52-1.38-2.36-3.08 1.06-1.56 3.34-2.96 3.72-3.26-1.24-0.98-2.4-2.68-1.84-4.36 0.62-1.84 2.56-3.22 4.46-2.44 1.42 0.54 2.46 1.84 2.58 3.42 0.14 2.02-1.46 3.66-3.46 4.2 0 0 0 0 0 0-0.24 0.08-0.52 0.16-0.8 0.22 1.6 1.18 3.36 1.96 5.04 2.96-2.1 2.96-4.48 5.06-7.34 5.06zM11.58 8.14c-0.92-0.12-1.68-1.26-1.44-2.62 0.18-1.02 1.08-1.96 2.4-2.12 1.68-0.2 2.94 1.04 2.62 2.54-0.22 1.02-1.22 1.66-2.48 1.8-0.1 0.02-0.18 0.04-0.28 0.04-0.2 0-0.4-0.02-0.6-0.08z" fill="#5382A1"/>
</svg>
