<svg xmlns="http://www.w3.org/2000/svg" viewBox="0 0 32 32">
  <path d="M15.73 0.29c-0.56 1.64-2.49 7.13-2.19 10.65 0.11 1.22 0.56 2.23 1.23 3.23 0.26 0.41 0.66 1.15 0.66 1.15s0.11 5.64-0.11 6.85c-0.3 1.64-0.94 4.61 0.11 5.74 0.79 0.88 0.26 1.11 0.26 1.11s0.71-0.13 1.6-0.84c1.06-0.79 0.94-1.08 0.94-1.08s0.19-0.94 0.11-1.38c-0.04-0.45-0.08-0.98-0.11-1.58-0.04-1.21-0.11-2.76 0.15-3.49 0.52-1.3 0.11-5.61 0.11-5.61s0.41-0.56 0.67-0.97c0.67-1.07 1.12-2.12 1.23-3.23 0.22-3.52-1.63-8.56-2.26-10.2-0.04-0.3-0.15-0.49-0.22-0.79-0.37-0.04-0.6-0.04-0.75 0.04-0.41 0.15-0.82 0.56-0.94 1.64-0.22 2.33-0.26 3.06-0.26 3.06l-0.26 1.86c-0.15-0.45-0.3-0.98-0.56-1.5-0.67-1.45-1.75-2.64-2.57-4.06z" fill="#47A248"/>
</svg>
