<svg xmlns="http://www.w3.org/2000/svg" viewBox="0 0 32 32">
  <path d="M16 0c-8.84 0-16 7.16-16 16s7.16 16 16 16 16-7.16 16-16-7.16-16-16-16zM16 29.32c-7.32 0-13.32-5.92-13.32-13.32s5.92-13.32 13.32-13.32 13.32 5.92 13.32 13.32-5.92 13.32-13.32 13.32zM21.3 19.2c-0.54 1.02-1.76 1.26-2.92 1.5-1.76 0.36-2.9 0.88-3.5 1.54-0.84 0.9-1.14 2.12-1.14 2.58s0 0.84 0.54 0.84c0.6 0 1.26-0.42 1.74-1.2 0.36-0.54 1.1-1.3 1.5-1.62s0.78-0.54 1.02-0.54c0.66 0 1.08 0.48 1.08 0.96s-0.24 0.9-0.48 1.26c-0.54 0.84-1.26 1.44-2.22 2.04-0.96 0.6-1.98 0.96-3.06 0.96s-1.86-0.36-2.46-1.02-0.84-1.62-0.84-2.7c0-2.88 2.04-5.22 4.5-5.94 0.84-0.24 1.62-0.42 2.28-0.42 0.54 0 1.08 0.06 1.38 0.12v1.02zM20.58 12.42c-0.54 0.3-1.02 0.54-1.5 0.54s-0.78-0.24-0.78-0.6c0-0.18 0-0.3 0.18-0.42 0.06-0.06 0.12-0.06 0.12-0.18s0-0.06 0-0.06-0.3-0.18-0.78-0.54c-0.48-0.36-1.02-0.78-1.56-1.38-0.42-0.54-0.72-1.08-0.72-1.68 0-0.96 0.66-1.56 1.62-1.56 1.02 0 1.8 0.54 2.46 1.32s0.9 1.44 0.96 2.16c0 0.12 0 0.12-0.12 0.18s-0.42 0.12-0.54 0.24z" fill="#336791"/>
</svg>
